<mxfile host="Electron" agent="Mozilla/5.0 (Windows NT 10.0; Win64; x64) AppleWebKit/537.36 (KHTML, like Gecko) draw.io/27.0.9 Chrome/134.0.6998.205 Electron/35.4.0 Safari/537.36" version="27.0.9">
  <diagram name="Page-1" id="WnwAAiK6k-XNT4HfP98O">
    <mxGraphModel dx="1895" dy="1215" grid="1" gridSize="10" guides="1" tooltips="1" connect="1" arrows="1" fold="1" page="1" pageScale="1" pageWidth="850" pageHeight="1100" math="0" shadow="0">
      <root>
        <mxCell id="0" />
        <mxCell id="1" parent="0" />
        <mxCell id="F2shb6BZP4cMJl0DHBAz-1" value="User" style="rounded=1;arcSize=10;whiteSpace=wrap;html=1;align=center;labelBackgroundColor=none;fillColor=#B2C9AB;strokeColor=#788AA3;fontColor=#46495D;" parent="1" vertex="1">
          <mxGeometry x="1012.1800000000001" y="313.53" width="100" height="40" as="geometry" />
        </mxCell>
        <mxCell id="F2shb6BZP4cMJl0DHBAz-2" value="Name" style="ellipse;whiteSpace=wrap;html=1;align=center;labelBackgroundColor=none;fillColor=#B2C9AB;strokeColor=#788AA3;fontColor=#46495D;" parent="1" vertex="1">
          <mxGeometry x="972.1800000000001" y="233.53" width="100" height="30" as="geometry" />
        </mxCell>
        <mxCell id="F2shb6BZP4cMJl0DHBAz-3" value="Id" style="ellipse;whiteSpace=wrap;html=1;align=center;fontStyle=4;labelBackgroundColor=none;fillColor=#B2C9AB;strokeColor=#788AA3;fontColor=#46495D;" parent="1" vertex="1">
          <mxGeometry x="852.1800000000001" y="285" width="90" height="30" as="geometry" />
        </mxCell>
        <mxCell id="F2shb6BZP4cMJl0DHBAz-4" value="Email" style="ellipse;whiteSpace=wrap;html=1;align=center;labelBackgroundColor=none;fillColor=#B2C9AB;strokeColor=#788AA3;fontColor=#46495D;" parent="1" vertex="1">
          <mxGeometry x="1112.18" y="263.53" width="100" height="30" as="geometry" />
        </mxCell>
        <mxCell id="F2shb6BZP4cMJl0DHBAz-5" value="Password" style="ellipse;whiteSpace=wrap;html=1;align=center;labelBackgroundColor=none;fillColor=#B2C9AB;strokeColor=#788AA3;fontColor=#46495D;" parent="1" vertex="1">
          <mxGeometry x="1087.18" y="213.53" width="100" height="30" as="geometry" />
        </mxCell>
        <mxCell id="F2shb6BZP4cMJl0DHBAz-6" value="Role" style="ellipse;whiteSpace=wrap;html=1;align=center;labelBackgroundColor=none;fillColor=#B2C9AB;strokeColor=#788AA3;fontColor=#46495D;" parent="1" vertex="1">
          <mxGeometry x="872.1800000000001" y="213.53" width="100" height="30" as="geometry" />
        </mxCell>
        <mxCell id="F2shb6BZP4cMJl0DHBAz-9" value="" style="endArrow=none;html=1;rounded=0;exitX=1;exitY=1;exitDx=0;exitDy=0;entryX=0.25;entryY=0;entryDx=0;entryDy=0;labelBackgroundColor=none;strokeColor=#788AA3;fontColor=default;" parent="1" target="F2shb6BZP4cMJl0DHBAz-1" edge="1">
          <mxGeometry relative="1" as="geometry">
            <mxPoint x="940.1152288494397" y="298.75127791879163" as="sourcePoint" />
            <mxPoint x="1022.1800000000001" y="423.53" as="targetPoint" />
          </mxGeometry>
        </mxCell>
        <mxCell id="F2shb6BZP4cMJl0DHBAz-10" value="" style="endArrow=none;html=1;rounded=0;exitX=0.5;exitY=1;exitDx=0;exitDy=0;entryX=0.5;entryY=0;entryDx=0;entryDy=0;labelBackgroundColor=none;strokeColor=#788AA3;fontColor=default;" parent="1" source="F2shb6BZP4cMJl0DHBAz-2" target="F2shb6BZP4cMJl0DHBAz-1" edge="1">
          <mxGeometry relative="1" as="geometry">
            <mxPoint x="1052.18" y="283.53" as="sourcePoint" />
            <mxPoint x="1212.18" y="283.53" as="targetPoint" />
          </mxGeometry>
        </mxCell>
        <mxCell id="F2shb6BZP4cMJl0DHBAz-12" value="" style="endArrow=none;html=1;rounded=0;exitX=0.5;exitY=1;exitDx=0;exitDy=0;entryX=0.75;entryY=0;entryDx=0;entryDy=0;labelBackgroundColor=none;strokeColor=#788AA3;fontColor=default;" parent="1" source="F2shb6BZP4cMJl0DHBAz-4" target="F2shb6BZP4cMJl0DHBAz-1" edge="1">
          <mxGeometry relative="1" as="geometry">
            <mxPoint x="1092.18" y="293.53" as="sourcePoint" />
            <mxPoint x="1252.18" y="293.53" as="targetPoint" />
          </mxGeometry>
        </mxCell>
        <mxCell id="F2shb6BZP4cMJl0DHBAz-13" value="" style="endArrow=none;html=1;rounded=0;entryX=0.5;entryY=1;entryDx=0;entryDy=0;exitX=0.5;exitY=0;exitDx=0;exitDy=0;labelBackgroundColor=none;strokeColor=#788AA3;fontColor=default;" parent="1" source="F2shb6BZP4cMJl0DHBAz-1" target="F2shb6BZP4cMJl0DHBAz-5" edge="1">
          <mxGeometry relative="1" as="geometry">
            <mxPoint x="1072.18" y="273.53" as="sourcePoint" />
            <mxPoint x="1232.18" y="273.53" as="targetPoint" />
          </mxGeometry>
        </mxCell>
        <mxCell id="F2shb6BZP4cMJl0DHBAz-15" value="" style="endArrow=none;html=1;rounded=0;exitX=0.5;exitY=1;exitDx=0;exitDy=0;entryX=0.25;entryY=0;entryDx=0;entryDy=0;labelBackgroundColor=none;strokeColor=#788AA3;fontColor=default;" parent="1" source="F2shb6BZP4cMJl0DHBAz-6" target="F2shb6BZP4cMJl0DHBAz-1" edge="1">
          <mxGeometry relative="1" as="geometry">
            <mxPoint x="922.1800000000001" y="263.53" as="sourcePoint" />
            <mxPoint x="1082.18" y="263.53" as="targetPoint" />
          </mxGeometry>
        </mxCell>
        <mxCell id="F2shb6BZP4cMJl0DHBAz-16" value="Client_Datails" style="rounded=1;arcSize=10;whiteSpace=wrap;html=1;align=center;labelBackgroundColor=none;fillColor=#B2C9AB;strokeColor=#788AA3;fontColor=#46495D;" parent="1" vertex="1">
          <mxGeometry x="1380" y="680" width="100" height="40" as="geometry" />
        </mxCell>
        <mxCell id="F2shb6BZP4cMJl0DHBAz-24" value="Buisness_Type" style="ellipse;whiteSpace=wrap;html=1;align=center;labelBackgroundColor=none;fillColor=#B2C9AB;strokeColor=#788AA3;fontColor=#46495D;" parent="1" vertex="1">
          <mxGeometry x="1460" y="600" width="100" height="30" as="geometry" />
        </mxCell>
        <mxCell id="F2shb6BZP4cMJl0DHBAz-25" value="Buisness_Name" style="ellipse;whiteSpace=wrap;html=1;align=center;labelBackgroundColor=none;fillColor=#B2C9AB;strokeColor=#788AA3;fontColor=#46495D;" parent="1" vertex="1">
          <mxGeometry x="1405" y="560" width="100" height="30" as="geometry" />
        </mxCell>
        <mxCell id="F2shb6BZP4cMJl0DHBAz-26" value="Name" style="ellipse;whiteSpace=wrap;html=1;align=center;labelBackgroundColor=none;fillColor=#B2C9AB;strokeColor=#788AA3;fontColor=#46495D;" parent="1" vertex="1">
          <mxGeometry x="1345" y="590" width="100" height="30" as="geometry" />
        </mxCell>
        <mxCell id="F2shb6BZP4cMJl0DHBAz-28" value="Address" style="ellipse;whiteSpace=wrap;html=1;align=center;labelBackgroundColor=none;fillColor=#B2C9AB;strokeColor=#788AA3;fontColor=#46495D;" parent="1" vertex="1">
          <mxGeometry x="1515" y="670" width="100" height="30" as="geometry" />
        </mxCell>
        <mxCell id="F2shb6BZP4cMJl0DHBAz-31" value="Client_Id" style="ellipse;whiteSpace=wrap;html=1;align=center;fontStyle=4;labelBackgroundColor=none;fillColor=#B2C9AB;strokeColor=#788AA3;fontColor=#46495D;" parent="1" vertex="1">
          <mxGeometry x="1280" y="560" width="100" height="30" as="geometry" />
        </mxCell>
        <mxCell id="F2shb6BZP4cMJl0DHBAz-32" value="Contact_Number" style="ellipse;shape=doubleEllipse;margin=3;whiteSpace=wrap;html=1;align=center;labelBackgroundColor=none;fillColor=#B2C9AB;strokeColor=#788AA3;fontColor=#46495D;" parent="1" vertex="1">
          <mxGeometry x="1445" y="760" width="110" height="40" as="geometry" />
        </mxCell>
        <mxCell id="F2shb6BZP4cMJl0DHBAz-33" value="Status" style="ellipse;whiteSpace=wrap;html=1;align=center;labelBackgroundColor=none;fillColor=#B2C9AB;strokeColor=#788AA3;fontColor=#46495D;" parent="1" vertex="1">
          <mxGeometry x="1505" y="720" width="100" height="30" as="geometry" />
        </mxCell>
        <mxCell id="F2shb6BZP4cMJl0DHBAz-34" value="Notes" style="ellipse;whiteSpace=wrap;html=1;align=center;labelBackgroundColor=none;fillColor=#B2C9AB;strokeColor=#788AA3;fontColor=#46495D;" parent="1" vertex="1">
          <mxGeometry x="1525" y="630" width="100" height="30" as="geometry" />
        </mxCell>
        <mxCell id="F2shb6BZP4cMJl0DHBAz-35" value="" style="endArrow=none;html=1;rounded=0;exitX=0.5;exitY=1;exitDx=0;exitDy=0;entryX=0;entryY=0.25;entryDx=0;entryDy=0;labelBackgroundColor=none;strokeColor=#788AA3;fontColor=default;" parent="1" source="F2shb6BZP4cMJl0DHBAz-31" target="F2shb6BZP4cMJl0DHBAz-16" edge="1">
          <mxGeometry relative="1" as="geometry">
            <mxPoint x="1320" y="680" as="sourcePoint" />
            <mxPoint x="1380" y="680" as="targetPoint" />
            <Array as="points">
              <mxPoint x="1355" y="640" />
            </Array>
          </mxGeometry>
        </mxCell>
        <mxCell id="F2shb6BZP4cMJl0DHBAz-36" value="" style="endArrow=none;html=1;rounded=0;exitX=0.5;exitY=1;exitDx=0;exitDy=0;entryX=0.25;entryY=0;entryDx=0;entryDy=0;labelBackgroundColor=none;strokeColor=#788AA3;fontColor=default;" parent="1" source="F2shb6BZP4cMJl0DHBAz-26" target="F2shb6BZP4cMJl0DHBAz-16" edge="1">
          <mxGeometry relative="1" as="geometry">
            <mxPoint x="1390" y="640" as="sourcePoint" />
            <mxPoint x="1550" y="640" as="targetPoint" />
          </mxGeometry>
        </mxCell>
        <mxCell id="F2shb6BZP4cMJl0DHBAz-37" value="" style="endArrow=none;html=1;rounded=0;entryX=0.5;entryY=1;entryDx=0;entryDy=0;exitX=0.5;exitY=0;exitDx=0;exitDy=0;labelBackgroundColor=none;strokeColor=#788AA3;fontColor=default;" parent="1" source="F2shb6BZP4cMJl0DHBAz-16" target="F2shb6BZP4cMJl0DHBAz-25" edge="1">
          <mxGeometry relative="1" as="geometry">
            <mxPoint x="1440" y="670" as="sourcePoint" />
            <mxPoint x="1600" y="670" as="targetPoint" />
          </mxGeometry>
        </mxCell>
        <mxCell id="F2shb6BZP4cMJl0DHBAz-38" value="" style="endArrow=none;html=1;rounded=0;exitX=0.5;exitY=1;exitDx=0;exitDy=0;entryX=0.75;entryY=0;entryDx=0;entryDy=0;labelBackgroundColor=none;strokeColor=#788AA3;fontColor=default;" parent="1" source="F2shb6BZP4cMJl0DHBAz-24" target="F2shb6BZP4cMJl0DHBAz-16" edge="1">
          <mxGeometry relative="1" as="geometry">
            <mxPoint x="1470" y="660" as="sourcePoint" />
            <mxPoint x="1630" y="660" as="targetPoint" />
          </mxGeometry>
        </mxCell>
        <mxCell id="F2shb6BZP4cMJl0DHBAz-39" value="" style="endArrow=none;html=1;rounded=0;exitX=0.5;exitY=0;exitDx=0;exitDy=0;entryX=0.5;entryY=1;entryDx=0;entryDy=0;labelBackgroundColor=none;strokeColor=#788AA3;fontColor=default;" parent="1" source="F2shb6BZP4cMJl0DHBAz-32" target="F2shb6BZP4cMJl0DHBAz-16" edge="1">
          <mxGeometry relative="1" as="geometry">
            <mxPoint x="1320" y="710" as="sourcePoint" />
            <mxPoint x="1410" y="720" as="targetPoint" />
          </mxGeometry>
        </mxCell>
        <mxCell id="F2shb6BZP4cMJl0DHBAz-40" style="edgeStyle=orthogonalEdgeStyle;rounded=0;orthogonalLoop=1;jettySize=auto;html=1;exitX=0.5;exitY=1;exitDx=0;exitDy=0;labelBackgroundColor=none;strokeColor=#788AA3;fontColor=default;" parent="1" source="F2shb6BZP4cMJl0DHBAz-28" target="F2shb6BZP4cMJl0DHBAz-28" edge="1">
          <mxGeometry relative="1" as="geometry" />
        </mxCell>
        <mxCell id="F2shb6BZP4cMJl0DHBAz-42" value="" style="endArrow=none;html=1;rounded=0;exitX=0.5;exitY=0;exitDx=0;exitDy=0;entryX=0.75;entryY=1;entryDx=0;entryDy=0;labelBackgroundColor=none;strokeColor=#788AA3;fontColor=default;" parent="1" source="F2shb6BZP4cMJl0DHBAz-33" target="F2shb6BZP4cMJl0DHBAz-16" edge="1">
          <mxGeometry relative="1" as="geometry">
            <mxPoint x="1510" y="750" as="sourcePoint" />
            <mxPoint x="1670" y="750" as="targetPoint" />
          </mxGeometry>
        </mxCell>
        <mxCell id="F2shb6BZP4cMJl0DHBAz-44" value="Influencer_Datails" style="rounded=1;arcSize=10;whiteSpace=wrap;html=1;align=center;labelBackgroundColor=none;fillColor=#B2C9AB;strokeColor=#788AA3;fontColor=#46495D;" parent="1" vertex="1">
          <mxGeometry x="785" y="140" width="110" height="40" as="geometry" />
        </mxCell>
        <mxCell id="F2shb6BZP4cMJl0DHBAz-47" value="Content_Type" style="ellipse;whiteSpace=wrap;html=1;align=center;labelBackgroundColor=none;fillColor=#B2C9AB;strokeColor=#788AA3;fontColor=#46495D;" parent="1" vertex="1">
          <mxGeometry x="700" y="35" width="110" height="30" as="geometry" />
        </mxCell>
        <mxCell id="F2shb6BZP4cMJl0DHBAz-48" value="Platform" style="ellipse;whiteSpace=wrap;html=1;align=center;labelBackgroundColor=none;fillColor=#B2C9AB;strokeColor=#788AA3;fontColor=#46495D;" parent="1" vertex="1">
          <mxGeometry x="790" width="100" height="30" as="geometry" />
        </mxCell>
        <mxCell id="F2shb6BZP4cMJl0DHBAz-49" value="Availability_Status" style="ellipse;whiteSpace=wrap;html=1;align=center;labelBackgroundColor=none;fillColor=#B2C9AB;strokeColor=#788AA3;fontColor=#46495D;" parent="1" vertex="1">
          <mxGeometry x="880" y="25" width="110" height="30" as="geometry" />
        </mxCell>
        <mxCell id="F2shb6BZP4cMJl0DHBAz-50" value="Pricing_Package" style="ellipse;whiteSpace=wrap;html=1;align=center;labelBackgroundColor=none;fillColor=#B2C9AB;strokeColor=#788AA3;fontColor=#46495D;" parent="1" vertex="1">
          <mxGeometry x="915" y="75" width="110" height="30" as="geometry" />
        </mxCell>
        <mxCell id="F2shb6BZP4cMJl0DHBAz-51" value="Platform" style="ellipse;whiteSpace=wrap;html=1;align=center;labelBackgroundColor=none;fillColor=#B2C9AB;strokeColor=#788AA3;fontColor=#46495D;" parent="1" vertex="1">
          <mxGeometry x="215" y="760" width="100" height="30" as="geometry" />
        </mxCell>
        <mxCell id="F2shb6BZP4cMJl0DHBAz-52" value="Objective" style="ellipse;whiteSpace=wrap;html=1;align=center;direction=west;labelBackgroundColor=none;fillColor=#B2C9AB;strokeColor=#788AA3;fontColor=#46495D;" parent="1" vertex="1">
          <mxGeometry x="405" y="835" width="100" height="30" as="geometry" />
        </mxCell>
        <mxCell id="F2shb6BZP4cMJl0DHBAz-53" value="Followers_Count" style="ellipse;whiteSpace=wrap;html=1;align=center;labelBackgroundColor=none;fillColor=#B2C9AB;strokeColor=#788AA3;fontColor=#46495D;" parent="1" vertex="1">
          <mxGeometry x="620" y="125" width="110" height="30" as="geometry" />
        </mxCell>
        <mxCell id="F2shb6BZP4cMJl0DHBAz-54" value="Influencer_Id" style="ellipse;whiteSpace=wrap;html=1;align=center;fontStyle=4;labelBackgroundColor=none;fillColor=#B2C9AB;strokeColor=#788AA3;fontColor=#46495D;" parent="1" vertex="1">
          <mxGeometry x="650" y="75" width="100" height="30" as="geometry" />
        </mxCell>
        <mxCell id="F2shb6BZP4cMJl0DHBAz-56" value="" style="endArrow=none;html=1;rounded=0;exitX=0.5;exitY=1;exitDx=0;exitDy=0;entryX=0.25;entryY=0;entryDx=0;entryDy=0;labelBackgroundColor=none;strokeColor=#788AA3;fontColor=default;" parent="1" source="F2shb6BZP4cMJl0DHBAz-54" target="F2shb6BZP4cMJl0DHBAz-44" edge="1">
          <mxGeometry relative="1" as="geometry">
            <mxPoint x="710" y="115" as="sourcePoint" />
            <mxPoint x="870" y="115" as="targetPoint" />
          </mxGeometry>
        </mxCell>
        <mxCell id="F2shb6BZP4cMJl0DHBAz-58" value="" style="endArrow=none;html=1;rounded=0;exitX=0.5;exitY=1;exitDx=0;exitDy=0;entryX=0.5;entryY=0;entryDx=0;entryDy=0;labelBackgroundColor=none;strokeColor=#788AA3;fontColor=default;" parent="1" source="F2shb6BZP4cMJl0DHBAz-47" target="F2shb6BZP4cMJl0DHBAz-44" edge="1">
          <mxGeometry relative="1" as="geometry">
            <mxPoint x="770" y="105" as="sourcePoint" />
            <mxPoint x="930" y="105" as="targetPoint" />
          </mxGeometry>
        </mxCell>
        <mxCell id="F2shb6BZP4cMJl0DHBAz-60" value="" style="endArrow=none;html=1;rounded=0;exitX=0.5;exitY=1;exitDx=0;exitDy=0;entryX=0.75;entryY=0;entryDx=0;entryDy=0;labelBackgroundColor=none;strokeColor=#788AA3;fontColor=default;" parent="1" source="F2shb6BZP4cMJl0DHBAz-48" target="F2shb6BZP4cMJl0DHBAz-44" edge="1">
          <mxGeometry relative="1" as="geometry">
            <mxPoint x="820" y="135" as="sourcePoint" />
            <mxPoint x="980" y="135" as="targetPoint" />
          </mxGeometry>
        </mxCell>
        <mxCell id="F2shb6BZP4cMJl0DHBAz-61" value="" style="endArrow=none;html=1;rounded=0;exitX=1;exitY=1;exitDx=0;exitDy=0;entryX=0;entryY=0.5;entryDx=0;entryDy=0;labelBackgroundColor=none;strokeColor=#788AA3;fontColor=default;" parent="1" source="F2shb6BZP4cMJl0DHBAz-53" target="F2shb6BZP4cMJl0DHBAz-44" edge="1">
          <mxGeometry relative="1" as="geometry">
            <mxPoint x="670" y="150" as="sourcePoint" />
            <mxPoint x="860" y="185" as="targetPoint" />
          </mxGeometry>
        </mxCell>
        <mxCell id="F2shb6BZP4cMJl0DHBAz-65" value="Caption" style="ellipse;whiteSpace=wrap;html=1;align=center;labelBackgroundColor=none;fillColor=#B2C9AB;strokeColor=#788AA3;fontColor=#46495D;" parent="1" vertex="1">
          <mxGeometry x="1204.6799999999998" y="740" width="100" height="30" as="geometry" />
        </mxCell>
        <mxCell id="F2shb6BZP4cMJl0DHBAz-67" value="Start_Date" style="ellipse;whiteSpace=wrap;html=1;align=center;labelBackgroundColor=none;fillColor=#B2C9AB;strokeColor=#788AA3;fontColor=#46495D;" parent="1" vertex="1">
          <mxGeometry x="247.5" y="890" width="90" height="30" as="geometry" />
        </mxCell>
        <mxCell id="F2shb6BZP4cMJl0DHBAz-68" value="Name" style="ellipse;whiteSpace=wrap;html=1;align=center;labelBackgroundColor=none;fillColor=#B2C9AB;strokeColor=#788AA3;fontColor=#46495D;" parent="1" vertex="1">
          <mxGeometry x="450" y="805" width="100" height="30" as="geometry" />
        </mxCell>
        <mxCell id="F2shb6BZP4cMJl0DHBAz-69" value="Campaign" style="rounded=1;arcSize=10;whiteSpace=wrap;html=1;align=center;labelBackgroundColor=none;fillColor=#B2C9AB;strokeColor=#788AA3;fontColor=#46495D;" parent="1" vertex="1">
          <mxGeometry x="385" y="735" width="100" height="40" as="geometry" />
        </mxCell>
        <mxCell id="F2shb6BZP4cMJl0DHBAz-70" value="Campaign_Id" style="ellipse;whiteSpace=wrap;html=1;align=center;fontStyle=4;labelBackgroundColor=none;fillColor=#B2C9AB;strokeColor=#788AA3;fontColor=#46495D;" parent="1" vertex="1">
          <mxGeometry x="107.5" y="660" width="100" height="30" as="geometry" />
        </mxCell>
        <mxCell id="F2shb6BZP4cMJl0DHBAz-72" value="Budget" style="ellipse;whiteSpace=wrap;html=1;align=center;labelBackgroundColor=none;fillColor=#B2C9AB;strokeColor=#788AA3;fontColor=#46495D;" parent="1" vertex="1">
          <mxGeometry x="210" y="670" width="100" height="30" as="geometry" />
        </mxCell>
        <mxCell id="F2shb6BZP4cMJl0DHBAz-73" value="End_Date" style="ellipse;whiteSpace=wrap;html=1;align=center;labelBackgroundColor=none;fillColor=#B2C9AB;strokeColor=#788AA3;fontColor=#46495D;" parent="1" vertex="1">
          <mxGeometry x="325" y="865" width="100" height="30" as="geometry" />
        </mxCell>
        <mxCell id="F2shb6BZP4cMJl0DHBAz-75" value="Stutus" style="ellipse;whiteSpace=wrap;html=1;align=center;labelBackgroundColor=none;fillColor=#B2C9AB;strokeColor=#788AA3;fontColor=#46495D;" parent="1" vertex="1">
          <mxGeometry x="260" y="800" width="100" height="30" as="geometry" />
        </mxCell>
        <mxCell id="F2shb6BZP4cMJl0DHBAz-76" value="Type" style="ellipse;whiteSpace=wrap;html=1;align=center;labelBackgroundColor=none;fillColor=#B2C9AB;strokeColor=#788AA3;fontColor=#46495D;" parent="1" vertex="1">
          <mxGeometry x="115" y="725" width="100" height="30" as="geometry" />
        </mxCell>
        <mxCell id="F2shb6BZP4cMJl0DHBAz-80" value="" style="endArrow=none;html=1;rounded=0;exitX=1;exitY=0.5;exitDx=0;exitDy=0;entryX=0;entryY=0.5;entryDx=0;entryDy=0;labelBackgroundColor=none;strokeColor=#788AA3;fontColor=default;" parent="1" source="F2shb6BZP4cMJl0DHBAz-72" target="F2shb6BZP4cMJl0DHBAz-69" edge="1">
          <mxGeometry relative="1" as="geometry">
            <mxPoint x="285" y="780" as="sourcePoint" />
            <mxPoint x="445" y="780" as="targetPoint" />
          </mxGeometry>
        </mxCell>
        <mxCell id="F2shb6BZP4cMJl0DHBAz-81" value="" style="endArrow=none;html=1;rounded=0;exitX=1;exitY=0.5;exitDx=0;exitDy=0;entryX=0;entryY=0.75;entryDx=0;entryDy=0;labelBackgroundColor=none;strokeColor=#788AA3;fontColor=default;" parent="1" source="F2shb6BZP4cMJl0DHBAz-76" target="F2shb6BZP4cMJl0DHBAz-69" edge="1">
          <mxGeometry relative="1" as="geometry">
            <mxPoint x="355" y="790" as="sourcePoint" />
            <mxPoint x="515" y="790" as="targetPoint" />
          </mxGeometry>
        </mxCell>
        <mxCell id="F2shb6BZP4cMJl0DHBAz-83" value="" style="endArrow=none;html=1;rounded=0;entryX=0.25;entryY=1;entryDx=0;entryDy=0;exitX=0.5;exitY=0;exitDx=0;exitDy=0;labelBackgroundColor=none;strokeColor=#788AA3;fontColor=default;" parent="1" source="F2shb6BZP4cMJl0DHBAz-75" target="F2shb6BZP4cMJl0DHBAz-69" edge="1">
          <mxGeometry relative="1" as="geometry">
            <mxPoint x="255" y="860" as="sourcePoint" />
            <mxPoint x="415" y="860" as="targetPoint" />
          </mxGeometry>
        </mxCell>
        <mxCell id="F2shb6BZP4cMJl0DHBAz-85" value="" style="endArrow=none;html=1;rounded=0;exitX=0.5;exitY=1;exitDx=0;exitDy=0;entryX=0.5;entryY=0;entryDx=0;entryDy=0;labelBackgroundColor=none;strokeColor=#788AA3;fontColor=default;" parent="1" source="F2shb6BZP4cMJl0DHBAz-69" target="F2shb6BZP4cMJl0DHBAz-73" edge="1">
          <mxGeometry relative="1" as="geometry">
            <mxPoint x="445" y="790" as="sourcePoint" />
            <mxPoint x="605" y="790" as="targetPoint" />
          </mxGeometry>
        </mxCell>
        <mxCell id="F2shb6BZP4cMJl0DHBAz-86" value="Engagement_Rate" style="ellipse;whiteSpace=wrap;html=1;align=center;labelBackgroundColor=none;fillColor=#B2C9AB;strokeColor=#788AA3;fontColor=#46495D;" parent="1" vertex="1">
          <mxGeometry x="967.5" y="990" width="115" height="30" as="geometry" />
        </mxCell>
        <mxCell id="F2shb6BZP4cMJl0DHBAz-87" value="Payment_Type" style="ellipse;whiteSpace=wrap;html=1;align=center;labelBackgroundColor=none;fillColor=#B2C9AB;strokeColor=#788AA3;fontColor=#46495D;" parent="1" vertex="1">
          <mxGeometry x="172.5" y="328.53" width="100" height="30" as="geometry" />
        </mxCell>
        <mxCell id="F2shb6BZP4cMJl0DHBAz-88" value="Status" style="ellipse;whiteSpace=wrap;html=1;align=center;labelBackgroundColor=none;fillColor=#B2C9AB;strokeColor=#788AA3;fontColor=#46495D;" parent="1" vertex="1">
          <mxGeometry x="1325" y="815" width="100" height="30" as="geometry" />
        </mxCell>
        <mxCell id="F2shb6BZP4cMJl0DHBAz-89" value="Platform" style="ellipse;whiteSpace=wrap;html=1;align=center;labelBackgroundColor=none;fillColor=#B2C9AB;strokeColor=#788AA3;fontColor=#46495D;" parent="1" vertex="1">
          <mxGeometry x="1289.6799999999998" y="775" width="100" height="30" as="geometry" />
        </mxCell>
        <mxCell id="F2shb6BZP4cMJl0DHBAz-90" value="Scheduled_Date" style="ellipse;whiteSpace=wrap;html=1;align=center;labelBackgroundColor=none;fillColor=#B2C9AB;strokeColor=#788AA3;fontColor=#46495D;" parent="1" vertex="1">
          <mxGeometry x="1350" y="860" width="110" height="30" as="geometry" />
        </mxCell>
        <mxCell id="F2shb6BZP4cMJl0DHBAz-91" value="Media_URL" style="ellipse;whiteSpace=wrap;html=1;align=center;labelBackgroundColor=none;fillColor=#B2C9AB;strokeColor=#788AA3;fontColor=#46495D;" parent="1" vertex="1">
          <mxGeometry x="1310" y="900" width="100" height="30" as="geometry" />
        </mxCell>
        <mxCell id="F2shb6BZP4cMJl0DHBAz-92" value="Post" style="rounded=1;arcSize=10;whiteSpace=wrap;html=1;align=center;labelBackgroundColor=none;fillColor=#B2C9AB;strokeColor=#788AA3;fontColor=#46495D;" parent="1" vertex="1">
          <mxGeometry x="1189.6799999999998" y="845" width="100" height="40" as="geometry" />
        </mxCell>
        <mxCell id="F2shb6BZP4cMJl0DHBAz-93" value="Post_Id" style="ellipse;whiteSpace=wrap;html=1;align=center;fontStyle=4;labelBackgroundColor=none;fillColor=#B2C9AB;strokeColor=#788AA3;fontColor=#46495D;" parent="1" vertex="1">
          <mxGeometry x="1139.6799999999998" y="770" width="100" height="30" as="geometry" />
        </mxCell>
        <mxCell id="F2shb6BZP4cMJl0DHBAz-94" value="" style="endArrow=none;html=1;rounded=0;exitX=0.5;exitY=1;exitDx=0;exitDy=0;entryX=0.25;entryY=0;entryDx=0;entryDy=0;labelBackgroundColor=none;strokeColor=#788AA3;fontColor=default;" parent="1" source="F2shb6BZP4cMJl0DHBAz-93" target="F2shb6BZP4cMJl0DHBAz-92" edge="1">
          <mxGeometry relative="1" as="geometry">
            <mxPoint x="1169.6799999999998" y="830" as="sourcePoint" />
            <mxPoint x="1329.6799999999998" y="830" as="targetPoint" />
          </mxGeometry>
        </mxCell>
        <mxCell id="F2shb6BZP4cMJl0DHBAz-95" value="" style="endArrow=none;html=1;rounded=0;exitX=0.5;exitY=1;exitDx=0;exitDy=0;entryX=0.5;entryY=0;entryDx=0;entryDy=0;labelBackgroundColor=none;strokeColor=#788AA3;fontColor=default;" parent="1" source="F2shb6BZP4cMJl0DHBAz-65" target="F2shb6BZP4cMJl0DHBAz-92" edge="1">
          <mxGeometry relative="1" as="geometry">
            <mxPoint x="1289.6799999999998" y="810" as="sourcePoint" />
            <mxPoint x="1449.6799999999998" y="810" as="targetPoint" />
          </mxGeometry>
        </mxCell>
        <mxCell id="F2shb6BZP4cMJl0DHBAz-97" value="" style="endArrow=none;html=1;rounded=0;exitX=0.5;exitY=1;exitDx=0;exitDy=0;entryX=0.75;entryY=0;entryDx=0;entryDy=0;labelBackgroundColor=none;strokeColor=#788AA3;fontColor=default;" parent="1" target="F2shb6BZP4cMJl0DHBAz-92" edge="1">
          <mxGeometry relative="1" as="geometry">
            <mxPoint x="1309.6799999999998" y="800" as="sourcePoint" />
            <mxPoint x="1479.6799999999998" y="840" as="targetPoint" />
          </mxGeometry>
        </mxCell>
        <mxCell id="F2shb6BZP4cMJl0DHBAz-100" value="Amount" style="ellipse;whiteSpace=wrap;html=1;align=center;labelBackgroundColor=none;fillColor=#B2C9AB;strokeColor=#788AA3;fontColor=#46495D;" parent="1" vertex="1">
          <mxGeometry x="7.5" y="423.53" width="90" height="30" as="geometry" />
        </mxCell>
        <mxCell id="F2shb6BZP4cMJl0DHBAz-102" value="Reach" style="ellipse;whiteSpace=wrap;html=1;align=center;labelBackgroundColor=none;fillColor=#B2C9AB;strokeColor=#788AA3;fontColor=#46495D;" parent="1" vertex="1">
          <mxGeometry x="670" y="980" width="100" height="30" as="geometry" />
        </mxCell>
        <mxCell id="F2shb6BZP4cMJl0DHBAz-103" value="Date" style="ellipse;whiteSpace=wrap;html=1;align=center;labelBackgroundColor=none;fillColor=#B2C9AB;strokeColor=#788AA3;fontColor=#46495D;" parent="1" vertex="1">
          <mxGeometry x="7.5" y="373.53" width="80" height="30" as="geometry" />
        </mxCell>
        <mxCell id="F2shb6BZP4cMJl0DHBAz-119" value="Payment" style="rounded=1;arcSize=10;whiteSpace=wrap;html=1;align=center;labelBackgroundColor=none;fillColor=#B2C9AB;strokeColor=#788AA3;fontColor=#46495D;" parent="1" vertex="1">
          <mxGeometry x="127.5" y="388.53" width="100" height="40" as="geometry" />
        </mxCell>
        <mxCell id="F2shb6BZP4cMJl0DHBAz-121" value="Payment_Id" style="ellipse;whiteSpace=wrap;html=1;align=center;fontStyle=4;labelBackgroundColor=none;fillColor=#B2C9AB;strokeColor=#788AA3;fontColor=#46495D;" parent="1" vertex="1">
          <mxGeometry x="27.5" y="323.53" width="100" height="30" as="geometry" />
        </mxCell>
        <mxCell id="F2shb6BZP4cMJl0DHBAz-126" value="Conversion_Rate" style="ellipse;whiteSpace=wrap;html=1;align=center;labelBackgroundColor=none;fillColor=#B2C9AB;strokeColor=#788AA3;fontColor=#46495D;" parent="1" vertex="1">
          <mxGeometry x="660" y="940" width="110" height="30" as="geometry" />
        </mxCell>
        <mxCell id="F2shb6BZP4cMJl0DHBAz-127" value="Clicks" style="ellipse;whiteSpace=wrap;html=1;align=center;labelBackgroundColor=none;fillColor=#B2C9AB;strokeColor=#788AA3;fontColor=#46495D;" parent="1" vertex="1">
          <mxGeometry x="915" y="1040" width="100" height="30" as="geometry" />
        </mxCell>
        <mxCell id="F2shb6BZP4cMJl0DHBAz-129" value="Status" style="ellipse;whiteSpace=wrap;html=1;align=center;labelBackgroundColor=none;fillColor=#B2C9AB;strokeColor=#788AA3;fontColor=#46495D;" parent="1" vertex="1">
          <mxGeometry x="97.5" y="298.53" width="100" height="30" as="geometry" />
        </mxCell>
        <mxCell id="F2shb6BZP4cMJl0DHBAz-130" value="" style="endArrow=none;html=1;rounded=0;exitX=0.5;exitY=1;exitDx=0;exitDy=0;entryX=0.25;entryY=0;entryDx=0;entryDy=0;labelBackgroundColor=none;strokeColor=#788AA3;fontColor=default;" parent="1" source="F2shb6BZP4cMJl0DHBAz-121" target="F2shb6BZP4cMJl0DHBAz-119" edge="1">
          <mxGeometry relative="1" as="geometry">
            <mxPoint x="77.5" y="363.53" as="sourcePoint" />
            <mxPoint x="237.5" y="363.53" as="targetPoint" />
          </mxGeometry>
        </mxCell>
        <mxCell id="F2shb6BZP4cMJl0DHBAz-132" value="" style="endArrow=none;html=1;rounded=0;exitX=0.5;exitY=1;exitDx=0;exitDy=0;entryX=0.5;entryY=0;entryDx=0;entryDy=0;labelBackgroundColor=none;strokeColor=#788AA3;fontColor=default;" parent="1" source="F2shb6BZP4cMJl0DHBAz-129" target="F2shb6BZP4cMJl0DHBAz-119" edge="1">
          <mxGeometry relative="1" as="geometry">
            <mxPoint x="177.5" y="353.53" as="sourcePoint" />
            <mxPoint x="337.5" y="353.53" as="targetPoint" />
          </mxGeometry>
        </mxCell>
        <mxCell id="F2shb6BZP4cMJl0DHBAz-133" value="" style="endArrow=none;html=1;rounded=0;exitX=0.5;exitY=1;exitDx=0;exitDy=0;entryX=0.75;entryY=0;entryDx=0;entryDy=0;labelBackgroundColor=none;strokeColor=#788AA3;fontColor=default;" parent="1" target="F2shb6BZP4cMJl0DHBAz-119" edge="1">
          <mxGeometry relative="1" as="geometry">
            <mxPoint x="217.5" y="358.53" as="sourcePoint" />
            <mxPoint x="407.5" y="383.53" as="targetPoint" />
          </mxGeometry>
        </mxCell>
        <mxCell id="F2shb6BZP4cMJl0DHBAz-134" value="" style="endArrow=none;html=1;rounded=0;exitX=1;exitY=0.5;exitDx=0;exitDy=0;entryX=0;entryY=0.25;entryDx=0;entryDy=0;labelBackgroundColor=none;strokeColor=#788AA3;fontColor=default;" parent="1" source="F2shb6BZP4cMJl0DHBAz-103" target="F2shb6BZP4cMJl0DHBAz-119" edge="1">
          <mxGeometry relative="1" as="geometry">
            <mxPoint x="87.5" y="413.53" as="sourcePoint" />
            <mxPoint x="247.5" y="413.53" as="targetPoint" />
          </mxGeometry>
        </mxCell>
        <mxCell id="F2shb6BZP4cMJl0DHBAz-135" value="" style="endArrow=none;html=1;rounded=0;exitX=1;exitY=0;exitDx=0;exitDy=0;entryX=0;entryY=0.5;entryDx=0;entryDy=0;labelBackgroundColor=none;strokeColor=#788AA3;fontColor=default;" parent="1" source="F2shb6BZP4cMJl0DHBAz-100" target="F2shb6BZP4cMJl0DHBAz-119" edge="1">
          <mxGeometry relative="1" as="geometry">
            <mxPoint x="107.5" y="503.53" as="sourcePoint" />
            <mxPoint x="267.5" y="503.53" as="targetPoint" />
          </mxGeometry>
        </mxCell>
        <mxCell id="F2shb6BZP4cMJl0DHBAz-136" value="Report" style="rounded=1;arcSize=10;whiteSpace=wrap;html=1;align=center;labelBackgroundColor=none;fillColor=#B2C9AB;strokeColor=#788AA3;fontColor=#46495D;" parent="1" vertex="1">
          <mxGeometry x="805" y="970" width="100" height="40" as="geometry" />
        </mxCell>
        <mxCell id="F2shb6BZP4cMJl0DHBAz-137" value="Report_Id" style="ellipse;whiteSpace=wrap;html=1;align=center;fontStyle=4;labelBackgroundColor=none;fillColor=#B2C9AB;strokeColor=#788AA3;fontColor=#46495D;" parent="1" vertex="1">
          <mxGeometry x="780" y="1050" width="100" height="30" as="geometry" />
        </mxCell>
        <mxCell id="F2shb6BZP4cMJl0DHBAz-139" value="" style="endArrow=none;html=1;rounded=0;exitX=0.5;exitY=0;exitDx=0;exitDy=0;entryX=0.25;entryY=1;entryDx=0;entryDy=0;labelBackgroundColor=none;strokeColor=#788AA3;fontColor=default;" parent="1" source="F2shb6BZP4cMJl0DHBAz-137" target="F2shb6BZP4cMJl0DHBAz-136" edge="1">
          <mxGeometry relative="1" as="geometry">
            <mxPoint x="855" y="925" as="sourcePoint" />
            <mxPoint x="1015" y="925" as="targetPoint" />
          </mxGeometry>
        </mxCell>
        <mxCell id="F2shb6BZP4cMJl0DHBAz-140" value="" style="endArrow=none;html=1;rounded=0;exitX=0;exitY=0.5;exitDx=0;exitDy=0;entryX=1;entryY=0.75;entryDx=0;entryDy=0;labelBackgroundColor=none;strokeColor=#788AA3;fontColor=default;" parent="1" source="F2shb6BZP4cMJl0DHBAz-86" target="F2shb6BZP4cMJl0DHBAz-136" edge="1">
          <mxGeometry relative="1" as="geometry">
            <mxPoint x="865" y="945" as="sourcePoint" />
            <mxPoint x="1025" y="945" as="targetPoint" />
          </mxGeometry>
        </mxCell>
        <mxCell id="F2shb6BZP4cMJl0DHBAz-141" value="" style="endArrow=none;html=1;rounded=0;exitX=0.75;exitY=1;exitDx=0;exitDy=0;entryX=0;entryY=0;entryDx=0;entryDy=0;labelBackgroundColor=none;strokeColor=#788AA3;fontColor=default;" parent="1" source="F2shb6BZP4cMJl0DHBAz-136" target="F2shb6BZP4cMJl0DHBAz-127" edge="1">
          <mxGeometry relative="1" as="geometry">
            <mxPoint x="925" y="975" as="sourcePoint" />
            <mxPoint x="1085" y="975" as="targetPoint" />
          </mxGeometry>
        </mxCell>
        <mxCell id="F2shb6BZP4cMJl0DHBAz-142" value="" style="endArrow=none;html=1;rounded=0;exitX=1;exitY=1;exitDx=0;exitDy=0;entryX=0;entryY=0.25;entryDx=0;entryDy=0;labelBackgroundColor=none;strokeColor=#788AA3;fontColor=default;" parent="1" source="F2shb6BZP4cMJl0DHBAz-126" target="F2shb6BZP4cMJl0DHBAz-136" edge="1">
          <mxGeometry relative="1" as="geometry">
            <mxPoint x="735" y="985" as="sourcePoint" />
            <mxPoint x="895" y="985" as="targetPoint" />
          </mxGeometry>
        </mxCell>
        <mxCell id="F2shb6BZP4cMJl0DHBAz-143" value="" style="endArrow=none;html=1;rounded=0;exitX=1;exitY=0.5;exitDx=0;exitDy=0;entryX=0;entryY=0.5;entryDx=0;entryDy=0;labelBackgroundColor=none;strokeColor=#788AA3;fontColor=default;" parent="1" source="F2shb6BZP4cMJl0DHBAz-102" target="F2shb6BZP4cMJl0DHBAz-136" edge="1">
          <mxGeometry relative="1" as="geometry">
            <mxPoint x="695" y="1005" as="sourcePoint" />
            <mxPoint x="855" y="1005" as="targetPoint" />
          </mxGeometry>
        </mxCell>
        <mxCell id="F2shb6BZP4cMJl0DHBAz-144" value="Admin" style="rounded=1;arcSize=10;whiteSpace=wrap;html=1;align=center;labelBackgroundColor=none;fillColor=#B2C9AB;strokeColor=#788AA3;fontColor=#46495D;" parent="1" vertex="1">
          <mxGeometry x="942.1800000000001" y="413.53" width="100" height="40" as="geometry" />
        </mxCell>
        <mxCell id="F2shb6BZP4cMJl0DHBAz-145" value="Marketing_Manager" style="rounded=1;arcSize=10;whiteSpace=wrap;html=1;align=center;labelBackgroundColor=none;fillColor=#B2C9AB;strokeColor=#788AA3;fontColor=#46495D;" parent="1" vertex="1">
          <mxGeometry x="1057.18" y="413.53" width="120" height="40" as="geometry" />
        </mxCell>
        <mxCell id="F2shb6BZP4cMJl0DHBAz-146" value="Client" style="rounded=1;arcSize=10;whiteSpace=wrap;html=1;align=center;labelBackgroundColor=none;fillColor=#B2C9AB;strokeColor=#788AA3;fontColor=#46495D;" parent="1" vertex="1">
          <mxGeometry x="1187.18" y="413.53" width="100" height="40" as="geometry" />
        </mxCell>
        <mxCell id="F2shb6BZP4cMJl0DHBAz-147" value="Influencer" style="rounded=1;arcSize=10;whiteSpace=wrap;html=1;align=center;labelBackgroundColor=none;fillColor=#B2C9AB;strokeColor=#788AA3;fontColor=#46495D;" parent="1" vertex="1">
          <mxGeometry x="790" y="413.53" width="100" height="40" as="geometry" />
        </mxCell>
        <mxCell id="F2shb6BZP4cMJl0DHBAz-148" value="" style="endArrow=none;html=1;rounded=0;exitX=0.5;exitY=0;exitDx=0;exitDy=0;entryX=0.25;entryY=1;entryDx=0;entryDy=0;labelBackgroundColor=none;strokeColor=#788AA3;fontColor=default;" parent="1" source="F2shb6BZP4cMJl0DHBAz-144" target="F2shb6BZP4cMJl0DHBAz-1" edge="1">
          <mxGeometry relative="1" as="geometry">
            <mxPoint x="1052.18" y="453.53" as="sourcePoint" />
            <mxPoint x="1212.18" y="453.53" as="targetPoint" />
          </mxGeometry>
        </mxCell>
        <mxCell id="F2shb6BZP4cMJl0DHBAz-149" value="" style="endArrow=none;html=1;rounded=0;exitX=0.5;exitY=1;exitDx=0;exitDy=0;entryX=0.25;entryY=0;entryDx=0;entryDy=0;labelBackgroundColor=none;strokeColor=#788AA3;fontColor=default;" parent="1" source="F2shb6BZP4cMJl0DHBAz-1" target="F2shb6BZP4cMJl0DHBAz-145" edge="1">
          <mxGeometry relative="1" as="geometry">
            <mxPoint x="1132.18" y="383.53" as="sourcePoint" />
            <mxPoint x="1292.18" y="383.53" as="targetPoint" />
          </mxGeometry>
        </mxCell>
        <mxCell id="F2shb6BZP4cMJl0DHBAz-150" value="" style="endArrow=none;html=1;rounded=0;exitX=0.75;exitY=1;exitDx=0;exitDy=0;entryX=0.25;entryY=0;entryDx=0;entryDy=0;labelBackgroundColor=none;strokeColor=#788AA3;fontColor=default;" parent="1" source="F2shb6BZP4cMJl0DHBAz-1" target="F2shb6BZP4cMJl0DHBAz-146" edge="1">
          <mxGeometry relative="1" as="geometry">
            <mxPoint x="1202.18" y="393.53" as="sourcePoint" />
            <mxPoint x="1362.18" y="393.53" as="targetPoint" />
          </mxGeometry>
        </mxCell>
        <mxCell id="F2shb6BZP4cMJl0DHBAz-151" value="" style="endArrow=none;html=1;rounded=0;exitX=0;exitY=1;exitDx=0;exitDy=0;entryX=0.5;entryY=0;entryDx=0;entryDy=0;labelBackgroundColor=none;strokeColor=#788AA3;fontColor=default;" parent="1" source="F2shb6BZP4cMJl0DHBAz-1" target="F2shb6BZP4cMJl0DHBAz-147" edge="1">
          <mxGeometry relative="1" as="geometry">
            <mxPoint x="1040" y="420" as="sourcePoint" />
            <mxPoint x="1200" y="420" as="targetPoint" />
          </mxGeometry>
        </mxCell>
        <mxCell id="F2shb6BZP4cMJl0DHBAz-155" value="Has" style="shape=rhombus;perimeter=rhombusPerimeter;whiteSpace=wrap;html=1;align=center;labelBackgroundColor=none;fillColor=#B2C9AB;strokeColor=#788AA3;fontColor=#46495D;" parent="1" vertex="1">
          <mxGeometry x="1180" y="600" width="120" height="60" as="geometry" />
        </mxCell>
        <mxCell id="F2shb6BZP4cMJl0DHBAz-158" value="" style="endArrow=none;html=1;rounded=0;exitX=0.5;exitY=0;exitDx=0;exitDy=0;entryX=0.5;entryY=1;entryDx=0;entryDy=0;labelBackgroundColor=none;strokeColor=#788AA3;fontColor=default;" parent="1" source="F2shb6BZP4cMJl0DHBAz-155" target="F2shb6BZP4cMJl0DHBAz-146" edge="1">
          <mxGeometry relative="1" as="geometry">
            <mxPoint x="1090" y="560" as="sourcePoint" />
            <mxPoint x="1250" y="560" as="targetPoint" />
          </mxGeometry>
        </mxCell>
        <mxCell id="F2shb6BZP4cMJl0DHBAz-159" value="1" style="resizable=0;html=1;whiteSpace=wrap;align=right;verticalAlign=bottom;labelBackgroundColor=none;fillColor=#B2C9AB;strokeColor=#788AA3;fontColor=#46495D;" parent="F2shb6BZP4cMJl0DHBAz-158" connectable="0" vertex="1">
          <mxGeometry x="1" relative="1" as="geometry" />
        </mxCell>
        <mxCell id="F2shb6BZP4cMJl0DHBAz-160" value="" style="endArrow=none;html=1;rounded=0;exitX=0.75;exitY=0;exitDx=0;exitDy=0;entryX=0;entryY=0.5;entryDx=0;entryDy=0;labelBackgroundColor=none;strokeColor=#788AA3;fontColor=default;" parent="1" source="F2shb6BZP4cMJl0DHBAz-16" target="F2shb6BZP4cMJl0DHBAz-34" edge="1">
          <mxGeometry relative="1" as="geometry">
            <mxPoint x="1495" y="680" as="sourcePoint" />
            <mxPoint x="1655" y="680" as="targetPoint" />
          </mxGeometry>
        </mxCell>
        <mxCell id="F2shb6BZP4cMJl0DHBAz-162" value="" style="endArrow=none;html=1;rounded=0;exitX=1;exitY=0.5;exitDx=0;exitDy=0;entryX=0;entryY=0.5;entryDx=0;entryDy=0;labelBackgroundColor=none;strokeColor=#788AA3;fontColor=default;" parent="1" source="F2shb6BZP4cMJl0DHBAz-16" target="F2shb6BZP4cMJl0DHBAz-28" edge="1">
          <mxGeometry relative="1" as="geometry">
            <mxPoint x="1495" y="680" as="sourcePoint" />
            <mxPoint x="1655" y="680" as="targetPoint" />
          </mxGeometry>
        </mxCell>
        <mxCell id="F2shb6BZP4cMJl0DHBAz-163" value="" style="endArrow=none;html=1;rounded=0;exitX=0.5;exitY=1;exitDx=0;exitDy=0;entryX=0;entryY=0.75;entryDx=0;entryDy=0;labelBackgroundColor=none;strokeColor=#788AA3;fontColor=default;" parent="1" source="F2shb6BZP4cMJl0DHBAz-155" target="F2shb6BZP4cMJl0DHBAz-16" edge="1">
          <mxGeometry relative="1" as="geometry">
            <mxPoint x="1110" y="700" as="sourcePoint" />
            <mxPoint x="1270" y="700" as="targetPoint" />
          </mxGeometry>
        </mxCell>
        <mxCell id="F2shb6BZP4cMJl0DHBAz-164" value="1" style="resizable=0;html=1;whiteSpace=wrap;align=right;verticalAlign=bottom;labelBackgroundColor=none;fillColor=#B2C9AB;strokeColor=#788AA3;fontColor=#46495D;" parent="F2shb6BZP4cMJl0DHBAz-163" connectable="0" vertex="1">
          <mxGeometry x="1" relative="1" as="geometry">
            <mxPoint x="-10" y="-5" as="offset" />
          </mxGeometry>
        </mxCell>
        <mxCell id="F2shb6BZP4cMJl0DHBAz-165" value="" style="endArrow=none;html=1;rounded=0;exitX=0;exitY=1;exitDx=0;exitDy=0;entryX=0.75;entryY=0;entryDx=0;entryDy=0;labelBackgroundColor=none;strokeColor=#788AA3;fontColor=default;" parent="1" source="F2shb6BZP4cMJl0DHBAz-49" target="F2shb6BZP4cMJl0DHBAz-44" edge="1">
          <mxGeometry relative="1" as="geometry">
            <mxPoint x="850" y="115" as="sourcePoint" />
            <mxPoint x="1010" y="115" as="targetPoint" />
          </mxGeometry>
        </mxCell>
        <mxCell id="F2shb6BZP4cMJl0DHBAz-166" value="" style="endArrow=none;html=1;rounded=0;exitX=0;exitY=0.5;exitDx=0;exitDy=0;entryX=0.75;entryY=0;entryDx=0;entryDy=0;labelBackgroundColor=none;strokeColor=#788AA3;fontColor=default;" parent="1" source="F2shb6BZP4cMJl0DHBAz-50" target="F2shb6BZP4cMJl0DHBAz-44" edge="1">
          <mxGeometry relative="1" as="geometry">
            <mxPoint x="540" y="315" as="sourcePoint" />
            <mxPoint x="700" y="315" as="targetPoint" />
          </mxGeometry>
        </mxCell>
        <mxCell id="F2shb6BZP4cMJl0DHBAz-167" value="Has" style="shape=rhombus;perimeter=rhombusPerimeter;whiteSpace=wrap;html=1;align=center;labelBackgroundColor=none;fillColor=#B2C9AB;strokeColor=#788AA3;fontColor=#46495D;" parent="1" vertex="1">
          <mxGeometry x="680" y="260" width="120" height="60" as="geometry" />
        </mxCell>
        <mxCell id="F2shb6BZP4cMJl0DHBAz-168" value="" style="endArrow=none;html=1;rounded=0;exitX=0.5;exitY=0;exitDx=0;exitDy=0;entryX=0.75;entryY=1;entryDx=0;entryDy=0;labelBackgroundColor=none;strokeColor=#788AA3;fontColor=default;" parent="1" source="F2shb6BZP4cMJl0DHBAz-167" target="F2shb6BZP4cMJl0DHBAz-44" edge="1">
          <mxGeometry relative="1" as="geometry">
            <mxPoint x="680" y="235" as="sourcePoint" />
            <mxPoint x="840" y="235" as="targetPoint" />
          </mxGeometry>
        </mxCell>
        <mxCell id="F2shb6BZP4cMJl0DHBAz-169" value="1" style="resizable=0;html=1;whiteSpace=wrap;align=right;verticalAlign=bottom;labelBackgroundColor=none;fillColor=#B2C9AB;strokeColor=#788AA3;fontColor=#46495D;" parent="F2shb6BZP4cMJl0DHBAz-168" connectable="0" vertex="1">
          <mxGeometry x="1" relative="1" as="geometry" />
        </mxCell>
        <mxCell id="F2shb6BZP4cMJl0DHBAz-172" value="" style="endArrow=none;html=1;rounded=0;exitX=0.5;exitY=1;exitDx=0;exitDy=0;entryX=0;entryY=0;entryDx=0;entryDy=0;labelBackgroundColor=none;strokeColor=#788AA3;fontColor=default;" parent="1" source="F2shb6BZP4cMJl0DHBAz-167" target="F2shb6BZP4cMJl0DHBAz-147" edge="1">
          <mxGeometry relative="1" as="geometry">
            <mxPoint x="1300" y="410" as="sourcePoint" />
            <mxPoint x="1460" y="410" as="targetPoint" />
          </mxGeometry>
        </mxCell>
        <mxCell id="F2shb6BZP4cMJl0DHBAz-173" value="1" style="resizable=0;html=1;whiteSpace=wrap;align=right;verticalAlign=bottom;labelBackgroundColor=none;fillColor=#B2C9AB;strokeColor=#788AA3;fontColor=#46495D;" parent="F2shb6BZP4cMJl0DHBAz-172" connectable="0" vertex="1">
          <mxGeometry x="1" relative="1" as="geometry" />
        </mxCell>
        <mxCell id="F2shb6BZP4cMJl0DHBAz-177" value="" style="endArrow=none;html=1;rounded=0;exitX=0.5;exitY=0;exitDx=0;exitDy=0;labelBackgroundColor=none;strokeColor=#788AA3;fontColor=default;" parent="1" target="F2shb6BZP4cMJl0DHBAz-69" edge="1">
          <mxGeometry relative="1" as="geometry">
            <mxPoint x="295" y="890" as="sourcePoint" />
            <mxPoint x="700" y="770" as="targetPoint" />
          </mxGeometry>
        </mxCell>
        <mxCell id="F2shb6BZP4cMJl0DHBAz-178" value="" style="endArrow=none;html=1;rounded=0;exitX=1;exitY=1;exitDx=0;exitDy=0;entryX=0.75;entryY=1;entryDx=0;entryDy=0;labelBackgroundColor=none;strokeColor=#788AA3;fontColor=default;" parent="1" source="F2shb6BZP4cMJl0DHBAz-52" target="F2shb6BZP4cMJl0DHBAz-69" edge="1">
          <mxGeometry relative="1" as="geometry">
            <mxPoint x="540" y="770" as="sourcePoint" />
            <mxPoint x="700" y="770" as="targetPoint" />
          </mxGeometry>
        </mxCell>
        <mxCell id="F2shb6BZP4cMJl0DHBAz-179" value="" style="endArrow=none;html=1;rounded=0;entryX=0.5;entryY=0;entryDx=0;entryDy=0;exitX=0.75;exitY=1;exitDx=0;exitDy=0;labelBackgroundColor=none;strokeColor=#788AA3;fontColor=default;" parent="1" source="F2shb6BZP4cMJl0DHBAz-69" target="F2shb6BZP4cMJl0DHBAz-68" edge="1">
          <mxGeometry relative="1" as="geometry">
            <mxPoint x="420" y="750" as="sourcePoint" />
            <mxPoint x="580" y="750" as="targetPoint" />
          </mxGeometry>
        </mxCell>
        <mxCell id="F2shb6BZP4cMJl0DHBAz-180" value="" style="endArrow=none;html=1;rounded=0;exitX=0.5;exitY=1;exitDx=0;exitDy=0;entryX=0;entryY=0.5;entryDx=0;entryDy=0;labelBackgroundColor=none;strokeColor=#788AA3;fontColor=default;" parent="1" source="F2shb6BZP4cMJl0DHBAz-70" target="F2shb6BZP4cMJl0DHBAz-69" edge="1">
          <mxGeometry relative="1" as="geometry">
            <mxPoint x="370" y="670" as="sourcePoint" />
            <mxPoint x="530" y="670" as="targetPoint" />
          </mxGeometry>
        </mxCell>
        <mxCell id="F2shb6BZP4cMJl0DHBAz-181" value="" style="endArrow=none;html=1;rounded=0;exitX=1;exitY=0.5;exitDx=0;exitDy=0;entryX=0;entryY=0.75;entryDx=0;entryDy=0;labelBackgroundColor=none;strokeColor=#788AA3;fontColor=default;" parent="1" source="F2shb6BZP4cMJl0DHBAz-51" target="F2shb6BZP4cMJl0DHBAz-69" edge="1">
          <mxGeometry relative="1" as="geometry">
            <mxPoint x="540" y="770" as="sourcePoint" />
            <mxPoint x="700" y="770" as="targetPoint" />
          </mxGeometry>
        </mxCell>
        <mxCell id="F2shb6BZP4cMJl0DHBAz-182" value="Creates" style="shape=rhombus;perimeter=rhombusPerimeter;whiteSpace=wrap;html=1;align=center;labelBackgroundColor=none;fillColor=#B2C9AB;strokeColor=#788AA3;fontColor=#46495D;" parent="1" vertex="1">
          <mxGeometry x="870" y="615" width="120" height="60" as="geometry" />
        </mxCell>
        <mxCell id="F2shb6BZP4cMJl0DHBAz-185" value="" style="endArrow=none;html=1;rounded=0;exitX=0.5;exitY=0;exitDx=0;exitDy=0;entryX=0.75;entryY=1;entryDx=0;entryDy=0;labelBackgroundColor=none;strokeColor=#788AA3;fontColor=default;" parent="1" source="F2shb6BZP4cMJl0DHBAz-182" target="F2shb6BZP4cMJl0DHBAz-145" edge="1">
          <mxGeometry relative="1" as="geometry">
            <mxPoint x="950" y="570" as="sourcePoint" />
            <mxPoint x="1110" y="570" as="targetPoint" />
          </mxGeometry>
        </mxCell>
        <mxCell id="F2shb6BZP4cMJl0DHBAz-186" value="1" style="resizable=0;html=1;whiteSpace=wrap;align=right;verticalAlign=bottom;labelBackgroundColor=none;fillColor=#B2C9AB;strokeColor=#788AA3;fontColor=#46495D;" parent="F2shb6BZP4cMJl0DHBAz-185" connectable="0" vertex="1">
          <mxGeometry x="1" relative="1" as="geometry" />
        </mxCell>
        <mxCell id="F2shb6BZP4cMJl0DHBAz-189" value="Belong" style="shape=rhombus;perimeter=rhombusPerimeter;whiteSpace=wrap;html=1;align=center;labelBackgroundColor=none;fillColor=#B2C9AB;strokeColor=#788AA3;fontColor=#46495D;" parent="1" vertex="1">
          <mxGeometry x="990" y="660" width="120" height="60" as="geometry" />
        </mxCell>
        <mxCell id="F2shb6BZP4cMJl0DHBAz-190" value="" style="endArrow=none;html=1;rounded=0;exitX=0.5;exitY=0;exitDx=0;exitDy=0;entryX=0.19;entryY=1.065;entryDx=0;entryDy=0;entryPerimeter=0;labelBackgroundColor=none;strokeColor=#788AA3;fontColor=default;" parent="1" source="F2shb6BZP4cMJl0DHBAz-189" target="F2shb6BZP4cMJl0DHBAz-146" edge="1">
          <mxGeometry relative="1" as="geometry">
            <mxPoint x="1030" y="670" as="sourcePoint" />
            <mxPoint x="1190" y="670" as="targetPoint" />
          </mxGeometry>
        </mxCell>
        <mxCell id="F2shb6BZP4cMJl0DHBAz-191" value="1" style="resizable=0;html=1;whiteSpace=wrap;align=right;verticalAlign=bottom;labelBackgroundColor=none;fillColor=#B2C9AB;strokeColor=#788AA3;fontColor=#46495D;" parent="F2shb6BZP4cMJl0DHBAz-190" connectable="0" vertex="1">
          <mxGeometry x="1" relative="1" as="geometry" />
        </mxCell>
        <mxCell id="F2shb6BZP4cMJl0DHBAz-194" value="Supervises" style="shape=rhombus;perimeter=rhombusPerimeter;whiteSpace=wrap;html=1;align=center;labelBackgroundColor=none;fillColor=#B2C9AB;strokeColor=#788AA3;fontColor=#46495D;" parent="1" vertex="1">
          <mxGeometry x="770" y="570" width="120" height="60" as="geometry" />
        </mxCell>
        <mxCell id="F2shb6BZP4cMJl0DHBAz-195" value="" style="endArrow=none;html=1;rounded=0;exitX=0.5;exitY=0;exitDx=0;exitDy=0;entryX=0.5;entryY=1;entryDx=0;entryDy=0;labelBackgroundColor=none;strokeColor=#788AA3;fontColor=default;" parent="1" source="F2shb6BZP4cMJl0DHBAz-194" target="F2shb6BZP4cMJl0DHBAz-144" edge="1">
          <mxGeometry relative="1" as="geometry">
            <mxPoint x="850" y="550" as="sourcePoint" />
            <mxPoint x="1010" y="550" as="targetPoint" />
          </mxGeometry>
        </mxCell>
        <mxCell id="F2shb6BZP4cMJl0DHBAz-196" value="1" style="resizable=0;html=1;whiteSpace=wrap;align=right;verticalAlign=bottom;labelBackgroundColor=none;fillColor=#B2C9AB;strokeColor=#788AA3;fontColor=#46495D;" parent="F2shb6BZP4cMJl0DHBAz-195" connectable="0" vertex="1">
          <mxGeometry x="1" relative="1" as="geometry" />
        </mxCell>
        <mxCell id="F2shb6BZP4cMJl0DHBAz-201" value="" style="endArrow=none;html=1;rounded=0;exitX=0.75;exitY=0;exitDx=0;exitDy=0;entryX=0;entryY=0.5;entryDx=0;entryDy=0;labelBackgroundColor=none;strokeColor=#788AA3;fontColor=default;" parent="1" source="F2shb6BZP4cMJl0DHBAz-92" target="F2shb6BZP4cMJl0DHBAz-88" edge="1">
          <mxGeometry relative="1" as="geometry">
            <mxPoint x="1320" y="870" as="sourcePoint" />
            <mxPoint x="1480" y="870" as="targetPoint" />
          </mxGeometry>
        </mxCell>
        <mxCell id="F2shb6BZP4cMJl0DHBAz-202" value="" style="endArrow=none;html=1;rounded=0;exitX=1;exitY=0.5;exitDx=0;exitDy=0;entryX=0;entryY=0.5;entryDx=0;entryDy=0;labelBackgroundColor=none;strokeColor=#788AA3;fontColor=default;" parent="1" source="F2shb6BZP4cMJl0DHBAz-92" target="F2shb6BZP4cMJl0DHBAz-90" edge="1">
          <mxGeometry relative="1" as="geometry">
            <mxPoint x="1310" y="870" as="sourcePoint" />
            <mxPoint x="1470" y="870" as="targetPoint" />
          </mxGeometry>
        </mxCell>
        <mxCell id="F2shb6BZP4cMJl0DHBAz-203" value="" style="endArrow=none;html=1;rounded=0;exitX=1;exitY=0.5;exitDx=0;exitDy=0;entryX=0.5;entryY=0;entryDx=0;entryDy=0;labelBackgroundColor=none;strokeColor=#788AA3;fontColor=default;" parent="1" source="F2shb6BZP4cMJl0DHBAz-92" target="F2shb6BZP4cMJl0DHBAz-91" edge="1">
          <mxGeometry relative="1" as="geometry">
            <mxPoint x="1300" y="890" as="sourcePoint" />
            <mxPoint x="1460" y="890" as="targetPoint" />
          </mxGeometry>
        </mxCell>
        <mxCell id="F2shb6BZP4cMJl0DHBAz-204" value="Includes" style="shape=rhombus;perimeter=rhombusPerimeter;whiteSpace=wrap;html=1;align=center;labelBackgroundColor=none;fillColor=#B2C9AB;strokeColor=#788AA3;fontColor=#46495D;" parent="1" vertex="1">
          <mxGeometry x="1019.6800000000001" y="835" width="120" height="60" as="geometry" />
        </mxCell>
        <mxCell id="F2shb6BZP4cMJl0DHBAz-205" value="" style="endArrow=none;html=1;rounded=0;exitX=1;exitY=0.5;exitDx=0;exitDy=0;entryX=0;entryY=0.5;entryDx=0;entryDy=0;labelBackgroundColor=none;strokeColor=#788AA3;fontColor=default;" parent="1" source="F2shb6BZP4cMJl0DHBAz-204" target="F2shb6BZP4cMJl0DHBAz-92" edge="1">
          <mxGeometry relative="1" as="geometry">
            <mxPoint x="1130" y="890" as="sourcePoint" />
            <mxPoint x="1290" y="890" as="targetPoint" />
          </mxGeometry>
        </mxCell>
        <mxCell id="F2shb6BZP4cMJl0DHBAz-206" value="N" style="resizable=0;html=1;whiteSpace=wrap;align=right;verticalAlign=bottom;labelBackgroundColor=none;fillColor=#B2C9AB;strokeColor=#788AA3;fontColor=#46495D;" parent="F2shb6BZP4cMJl0DHBAz-205" connectable="0" vertex="1">
          <mxGeometry x="1" relative="1" as="geometry" />
        </mxCell>
        <mxCell id="F2shb6BZP4cMJl0DHBAz-207" value="" style="endArrow=none;html=1;rounded=0;exitX=0.5;exitY=0;exitDx=0;exitDy=0;entryX=1;entryY=0.75;entryDx=0;entryDy=0;labelBackgroundColor=none;strokeColor=#788AA3;fontColor=default;" parent="1" source="F2shb6BZP4cMJl0DHBAz-204" target="F2shb6BZP4cMJl0DHBAz-69" edge="1">
          <mxGeometry relative="1" as="geometry">
            <mxPoint x="980" y="770" as="sourcePoint" />
            <mxPoint x="1140" y="770" as="targetPoint" />
          </mxGeometry>
        </mxCell>
        <mxCell id="F2shb6BZP4cMJl0DHBAz-208" value="1" style="resizable=0;html=1;whiteSpace=wrap;align=right;verticalAlign=bottom;labelBackgroundColor=none;fillColor=#B2C9AB;strokeColor=#788AA3;fontColor=#46495D;" parent="F2shb6BZP4cMJl0DHBAz-207" connectable="0" vertex="1">
          <mxGeometry x="1" relative="1" as="geometry" />
        </mxCell>
        <mxCell id="F2shb6BZP4cMJl0DHBAz-209" value="" style="endArrow=none;html=1;rounded=0;exitX=0;exitY=0.5;exitDx=0;exitDy=0;entryX=0.5;entryY=0;entryDx=0;entryDy=0;labelBackgroundColor=none;strokeColor=#788AA3;fontColor=default;" parent="1" source="F2shb6BZP4cMJl0DHBAz-194" target="F2shb6BZP4cMJl0DHBAz-69" edge="1">
          <mxGeometry relative="1" as="geometry">
            <mxPoint x="600" y="660" as="sourcePoint" />
            <mxPoint x="760" y="660" as="targetPoint" />
          </mxGeometry>
        </mxCell>
        <mxCell id="F2shb6BZP4cMJl0DHBAz-210" value="" style="resizable=0;html=1;whiteSpace=wrap;align=right;verticalAlign=bottom;labelBackgroundColor=none;fillColor=#B2C9AB;strokeColor=#788AA3;fontColor=#46495D;" parent="F2shb6BZP4cMJl0DHBAz-209" connectable="0" vertex="1">
          <mxGeometry x="1" relative="1" as="geometry" />
        </mxCell>
        <mxCell id="F2shb6BZP4cMJl0DHBAz-211" value="" style="endArrow=none;html=1;rounded=0;exitX=0;exitY=0.5;exitDx=0;exitDy=0;entryX=0.75;entryY=0;entryDx=0;entryDy=0;labelBackgroundColor=none;strokeColor=#788AA3;fontColor=default;" parent="1" source="F2shb6BZP4cMJl0DHBAz-182" target="F2shb6BZP4cMJl0DHBAz-69" edge="1">
          <mxGeometry relative="1" as="geometry">
            <mxPoint x="850" y="740" as="sourcePoint" />
            <mxPoint x="1010" y="740" as="targetPoint" />
          </mxGeometry>
        </mxCell>
        <mxCell id="F2shb6BZP4cMJl0DHBAz-212" value="N" style="resizable=0;html=1;whiteSpace=wrap;align=right;verticalAlign=bottom;labelBackgroundColor=none;fillColor=#B2C9AB;strokeColor=#788AA3;fontColor=#46495D;" parent="F2shb6BZP4cMJl0DHBAz-211" connectable="0" vertex="1">
          <mxGeometry x="1" relative="1" as="geometry" />
        </mxCell>
        <mxCell id="F2shb6BZP4cMJl0DHBAz-213" value="" style="endArrow=none;html=1;rounded=0;exitX=0;exitY=0.5;exitDx=0;exitDy=0;entryX=1;entryY=0.25;entryDx=0;entryDy=0;labelBackgroundColor=none;strokeColor=#788AA3;fontColor=default;" parent="1" source="F2shb6BZP4cMJl0DHBAz-189" target="F2shb6BZP4cMJl0DHBAz-69" edge="1">
          <mxGeometry relative="1" as="geometry">
            <mxPoint x="860" y="750" as="sourcePoint" />
            <mxPoint x="1020" y="750" as="targetPoint" />
          </mxGeometry>
        </mxCell>
        <mxCell id="F2shb6BZP4cMJl0DHBAz-214" value="N" style="resizable=0;html=1;whiteSpace=wrap;align=right;verticalAlign=bottom;labelBackgroundColor=none;fillColor=#B2C9AB;strokeColor=#788AA3;fontColor=#46495D;" parent="F2shb6BZP4cMJl0DHBAz-213" connectable="0" vertex="1">
          <mxGeometry x="1" relative="1" as="geometry" />
        </mxCell>
        <mxCell id="F2shb6BZP4cMJl0DHBAz-239" value="Recieves" style="shape=rhombus;perimeter=rhombusPerimeter;whiteSpace=wrap;html=1;align=center;labelBackgroundColor=none;fillColor=#B2C9AB;strokeColor=#788AA3;fontColor=#46495D;" parent="1" vertex="1">
          <mxGeometry x="245" y="470" width="120" height="60" as="geometry" />
        </mxCell>
        <mxCell id="F2shb6BZP4cMJl0DHBAz-240" value="" style="endArrow=none;html=1;rounded=0;exitX=0.5;exitY=1;exitDx=0;exitDy=0;entryX=0;entryY=0;entryDx=0;entryDy=0;labelBackgroundColor=none;strokeColor=#788AA3;fontColor=default;" parent="1" source="F2shb6BZP4cMJl0DHBAz-239" target="F2shb6BZP4cMJl0DHBAz-69" edge="1">
          <mxGeometry relative="1" as="geometry">
            <mxPoint x="400" y="660" as="sourcePoint" />
            <mxPoint x="560" y="660" as="targetPoint" />
          </mxGeometry>
        </mxCell>
        <mxCell id="F2shb6BZP4cMJl0DHBAz-241" value="1" style="resizable=0;html=1;whiteSpace=wrap;align=right;verticalAlign=bottom;labelBackgroundColor=none;fillColor=#B2C9AB;strokeColor=#788AA3;fontColor=#46495D;" parent="F2shb6BZP4cMJl0DHBAz-240" connectable="0" vertex="1">
          <mxGeometry x="1" relative="1" as="geometry" />
        </mxCell>
        <mxCell id="F2shb6BZP4cMJl0DHBAz-242" value="" style="endArrow=none;html=1;rounded=0;exitX=0.5;exitY=0;exitDx=0;exitDy=0;entryX=0.5;entryY=1;entryDx=0;entryDy=0;labelBackgroundColor=none;strokeColor=#788AA3;fontColor=default;" parent="1" source="F2shb6BZP4cMJl0DHBAz-239" target="F2shb6BZP4cMJl0DHBAz-119" edge="1">
          <mxGeometry relative="1" as="geometry">
            <mxPoint x="250" y="420" as="sourcePoint" />
            <mxPoint x="410" y="420" as="targetPoint" />
          </mxGeometry>
        </mxCell>
        <mxCell id="F2shb6BZP4cMJl0DHBAz-243" value="N" style="resizable=0;html=1;whiteSpace=wrap;align=right;verticalAlign=bottom;labelBackgroundColor=none;fillColor=#B2C9AB;strokeColor=#788AA3;fontColor=#46495D;" parent="F2shb6BZP4cMJl0DHBAz-242" connectable="0" vertex="1">
          <mxGeometry x="1" relative="1" as="geometry" />
        </mxCell>
        <mxCell id="F2shb6BZP4cMJl0DHBAz-244" value="Generates" style="shape=rhombus;perimeter=rhombusPerimeter;whiteSpace=wrap;html=1;align=center;labelBackgroundColor=none;fillColor=#B2C9AB;strokeColor=#788AA3;fontColor=#46495D;" parent="1" vertex="1">
          <mxGeometry x="830" y="870" width="120" height="60" as="geometry" />
        </mxCell>
        <mxCell id="F2shb6BZP4cMJl0DHBAz-245" value="" style="endArrow=none;html=1;rounded=0;exitX=0.5;exitY=0;exitDx=0;exitDy=0;entryX=0.75;entryY=1;entryDx=0;entryDy=0;labelBackgroundColor=none;strokeColor=#788AA3;fontColor=default;" parent="1" source="F2shb6BZP4cMJl0DHBAz-244" target="F2shb6BZP4cMJl0DHBAz-69" edge="1">
          <mxGeometry relative="1" as="geometry">
            <mxPoint x="730" y="850" as="sourcePoint" />
            <mxPoint x="890" y="850" as="targetPoint" />
          </mxGeometry>
        </mxCell>
        <mxCell id="F2shb6BZP4cMJl0DHBAz-246" value="1" style="resizable=0;html=1;whiteSpace=wrap;align=right;verticalAlign=bottom;labelBackgroundColor=none;fillColor=#B2C9AB;strokeColor=#788AA3;fontColor=#46495D;" parent="F2shb6BZP4cMJl0DHBAz-245" connectable="0" vertex="1">
          <mxGeometry x="1" relative="1" as="geometry" />
        </mxCell>
        <mxCell id="F2shb6BZP4cMJl0DHBAz-249" value="" style="endArrow=none;html=1;rounded=0;exitX=0.5;exitY=1;exitDx=0;exitDy=0;entryX=0.5;entryY=0;entryDx=0;entryDy=0;labelBackgroundColor=none;strokeColor=#788AA3;fontColor=default;" parent="1" source="F2shb6BZP4cMJl0DHBAz-244" target="F2shb6BZP4cMJl0DHBAz-136" edge="1">
          <mxGeometry relative="1" as="geometry">
            <mxPoint x="950" y="940" as="sourcePoint" />
            <mxPoint x="1110" y="940" as="targetPoint" />
          </mxGeometry>
        </mxCell>
        <mxCell id="F2shb6BZP4cMJl0DHBAz-250" value="N" style="resizable=0;html=1;whiteSpace=wrap;align=right;verticalAlign=bottom;labelBackgroundColor=none;fillColor=#B2C9AB;strokeColor=#788AA3;fontColor=#46495D;" parent="F2shb6BZP4cMJl0DHBAz-249" connectable="0" vertex="1">
          <mxGeometry x="1" relative="1" as="geometry" />
        </mxCell>
        <mxCell id="ar1jgbPBTupEKVwIJaHe-1" value="Campaign_Slot" style="rounded=1;arcSize=10;whiteSpace=wrap;html=1;align=center;labelBackgroundColor=none;fillColor=#B2C9AB;strokeColor=#788AA3;fontColor=#46495D;" vertex="1" parent="1">
          <mxGeometry x="375" y="285" width="100" height="40" as="geometry" />
        </mxCell>
        <mxCell id="ar1jgbPBTupEKVwIJaHe-4" value="Have" style="shape=rhombus;perimeter=rhombusPerimeter;whiteSpace=wrap;html=1;align=center;labelBackgroundColor=none;fillColor=#B2C9AB;strokeColor=#788AA3;fontColor=#46495D;" vertex="1" parent="1">
          <mxGeometry x="365" y="480" width="120" height="60" as="geometry" />
        </mxCell>
        <mxCell id="ar1jgbPBTupEKVwIJaHe-8" value="" style="endArrow=none;html=1;rounded=0;exitX=0.5;exitY=0;exitDx=0;exitDy=0;entryX=0.5;entryY=1;entryDx=0;entryDy=0;labelBackgroundColor=none;strokeColor=#788AA3;fontColor=default;" edge="1" parent="1" source="F2shb6BZP4cMJl0DHBAz-69" target="ar1jgbPBTupEKVwIJaHe-4">
          <mxGeometry relative="1" as="geometry">
            <mxPoint x="315" y="480" as="sourcePoint" />
            <mxPoint x="190" y="310" as="targetPoint" />
          </mxGeometry>
        </mxCell>
        <mxCell id="ar1jgbPBTupEKVwIJaHe-9" value="" style="resizable=0;html=1;whiteSpace=wrap;align=right;verticalAlign=bottom;labelBackgroundColor=none;fillColor=#B2C9AB;strokeColor=#788AA3;fontColor=#46495D;" connectable="0" vertex="1" parent="ar1jgbPBTupEKVwIJaHe-8">
          <mxGeometry x="1" relative="1" as="geometry" />
        </mxCell>
        <mxCell id="ar1jgbPBTupEKVwIJaHe-13" value="1" style="edgeLabel;html=1;align=center;verticalAlign=middle;resizable=0;points=[];" vertex="1" connectable="0" parent="ar1jgbPBTupEKVwIJaHe-8">
          <mxGeometry x="0.2403" y="-1" relative="1" as="geometry">
            <mxPoint as="offset" />
          </mxGeometry>
        </mxCell>
        <mxCell id="ar1jgbPBTupEKVwIJaHe-10" value="" style="endArrow=none;html=1;rounded=0;exitX=0.5;exitY=0;exitDx=0;exitDy=0;entryX=0.5;entryY=1;entryDx=0;entryDy=0;labelBackgroundColor=none;strokeColor=#788AA3;fontColor=default;" edge="1" parent="1" source="ar1jgbPBTupEKVwIJaHe-4" target="ar1jgbPBTupEKVwIJaHe-1">
          <mxGeometry relative="1" as="geometry">
            <mxPoint x="315" y="480" as="sourcePoint" />
            <mxPoint x="190" y="310" as="targetPoint" />
          </mxGeometry>
        </mxCell>
        <mxCell id="ar1jgbPBTupEKVwIJaHe-11" value="" style="resizable=0;html=1;whiteSpace=wrap;align=right;verticalAlign=bottom;labelBackgroundColor=none;fillColor=#B2C9AB;strokeColor=#788AA3;fontColor=#46495D;" connectable="0" vertex="1" parent="ar1jgbPBTupEKVwIJaHe-10">
          <mxGeometry x="1" relative="1" as="geometry" />
        </mxCell>
        <mxCell id="ar1jgbPBTupEKVwIJaHe-12" value="m" style="edgeLabel;html=1;align=center;verticalAlign=middle;resizable=0;points=[];" vertex="1" connectable="0" parent="ar1jgbPBTupEKVwIJaHe-10">
          <mxGeometry x="0.2604" relative="1" as="geometry">
            <mxPoint as="offset" />
          </mxGeometry>
        </mxCell>
        <mxCell id="ar1jgbPBTupEKVwIJaHe-15" value="Has" style="shape=rhombus;perimeter=rhombusPerimeter;whiteSpace=wrap;html=1;align=center;labelBackgroundColor=none;fillColor=#B2C9AB;strokeColor=#788AA3;fontColor=#46495D;" vertex="1" parent="1">
          <mxGeometry x="560" y="360" width="120" height="60" as="geometry" />
        </mxCell>
        <mxCell id="ar1jgbPBTupEKVwIJaHe-16" value="" style="endArrow=none;html=1;rounded=0;exitX=1;exitY=0.5;exitDx=0;exitDy=0;entryX=0.5;entryY=0;entryDx=0;entryDy=0;labelBackgroundColor=none;strokeColor=#788AA3;fontColor=default;" edge="1" parent="1" source="ar1jgbPBTupEKVwIJaHe-1" target="ar1jgbPBTupEKVwIJaHe-15">
          <mxGeometry relative="1" as="geometry">
            <mxPoint x="315" y="480" as="sourcePoint" />
            <mxPoint x="190" y="310" as="targetPoint" />
          </mxGeometry>
        </mxCell>
        <mxCell id="ar1jgbPBTupEKVwIJaHe-17" value="" style="resizable=0;html=1;whiteSpace=wrap;align=right;verticalAlign=bottom;labelBackgroundColor=none;fillColor=#B2C9AB;strokeColor=#788AA3;fontColor=#46495D;" connectable="0" vertex="1" parent="ar1jgbPBTupEKVwIJaHe-16">
          <mxGeometry x="1" relative="1" as="geometry" />
        </mxCell>
        <mxCell id="ar1jgbPBTupEKVwIJaHe-20" value="1" style="edgeLabel;html=1;align=center;verticalAlign=middle;resizable=0;points=[];" vertex="1" connectable="0" parent="ar1jgbPBTupEKVwIJaHe-16">
          <mxGeometry x="-0.1809" relative="1" as="geometry">
            <mxPoint as="offset" />
          </mxGeometry>
        </mxCell>
        <mxCell id="ar1jgbPBTupEKVwIJaHe-18" value="" style="endArrow=none;html=1;rounded=0;exitX=0.5;exitY=1;exitDx=0;exitDy=0;entryX=0;entryY=0.5;entryDx=0;entryDy=0;labelBackgroundColor=none;strokeColor=#788AA3;fontColor=default;" edge="1" parent="1" source="ar1jgbPBTupEKVwIJaHe-15" target="F2shb6BZP4cMJl0DHBAz-147">
          <mxGeometry relative="1" as="geometry">
            <mxPoint x="485" y="315" as="sourcePoint" />
            <mxPoint x="590" y="390" as="targetPoint" />
          </mxGeometry>
        </mxCell>
        <mxCell id="ar1jgbPBTupEKVwIJaHe-19" value="" style="resizable=0;html=1;whiteSpace=wrap;align=right;verticalAlign=bottom;labelBackgroundColor=none;fillColor=#B2C9AB;strokeColor=#788AA3;fontColor=#46495D;" connectable="0" vertex="1" parent="ar1jgbPBTupEKVwIJaHe-18">
          <mxGeometry x="1" relative="1" as="geometry" />
        </mxCell>
        <mxCell id="ar1jgbPBTupEKVwIJaHe-21" value="1" style="edgeLabel;html=1;align=center;verticalAlign=middle;resizable=0;points=[];" vertex="1" connectable="0" parent="ar1jgbPBTupEKVwIJaHe-18">
          <mxGeometry x="-0.1378" y="1" relative="1" as="geometry">
            <mxPoint as="offset" />
          </mxGeometry>
        </mxCell>
        <mxCell id="ar1jgbPBTupEKVwIJaHe-22" value="&lt;u&gt;SlotID&lt;/u&gt;" style="ellipse;whiteSpace=wrap;html=1;align=center;labelBackgroundColor=none;fillColor=#B2C9AB;strokeColor=#788AA3;fontColor=#46495D;" vertex="1" parent="1">
          <mxGeometry x="170" y="213.53" width="100" height="30" as="geometry" />
        </mxCell>
        <mxCell id="ar1jgbPBTupEKVwIJaHe-24" value="Platform" style="ellipse;whiteSpace=wrap;html=1;align=center;labelBackgroundColor=none;fillColor=#B2C9AB;strokeColor=#788AA3;fontColor=#46495D;" vertex="1" parent="1">
          <mxGeometry x="180" y="150" width="100" height="30" as="geometry" />
        </mxCell>
        <mxCell id="ar1jgbPBTupEKVwIJaHe-25" value="Price" style="ellipse;whiteSpace=wrap;html=1;align=center;labelBackgroundColor=none;fillColor=#B2C9AB;strokeColor=#788AA3;fontColor=#46495D;" vertex="1" parent="1">
          <mxGeometry x="500" y="95" width="100" height="30" as="geometry" />
        </mxCell>
        <mxCell id="ar1jgbPBTupEKVwIJaHe-26" value="Status" style="ellipse;whiteSpace=wrap;html=1;align=center;labelBackgroundColor=none;fillColor=#B2C9AB;strokeColor=#788AA3;fontColor=#46495D;" vertex="1" parent="1">
          <mxGeometry x="450" y="55" width="100" height="30" as="geometry" />
        </mxCell>
        <mxCell id="ar1jgbPBTupEKVwIJaHe-27" value="EndDate" style="ellipse;whiteSpace=wrap;html=1;align=center;labelBackgroundColor=none;fillColor=#B2C9AB;strokeColor=#788AA3;fontColor=#46495D;" vertex="1" parent="1">
          <mxGeometry x="337.5" y="65" width="100" height="30" as="geometry" />
        </mxCell>
        <mxCell id="ar1jgbPBTupEKVwIJaHe-28" value="StartDate" style="ellipse;whiteSpace=wrap;html=1;align=center;labelBackgroundColor=none;fillColor=#B2C9AB;strokeColor=#788AA3;fontColor=#46495D;" vertex="1" parent="1">
          <mxGeometry x="225" y="95" width="100" height="30" as="geometry" />
        </mxCell>
        <mxCell id="ar1jgbPBTupEKVwIJaHe-29" value="" style="endArrow=none;html=1;rounded=0;exitX=0.75;exitY=0;exitDx=0;exitDy=0;entryX=0;entryY=1;entryDx=0;entryDy=0;labelBackgroundColor=none;strokeColor=#788AA3;fontColor=default;" edge="1" parent="1" source="ar1jgbPBTupEKVwIJaHe-1" target="ar1jgbPBTupEKVwIJaHe-25">
          <mxGeometry relative="1" as="geometry">
            <mxPoint x="375" y="188.53" as="sourcePoint" />
            <mxPoint x="520" y="243.53" as="targetPoint" />
          </mxGeometry>
        </mxCell>
        <mxCell id="ar1jgbPBTupEKVwIJaHe-30" value="" style="resizable=0;html=1;whiteSpace=wrap;align=right;verticalAlign=bottom;labelBackgroundColor=none;fillColor=#B2C9AB;strokeColor=#788AA3;fontColor=#46495D;" connectable="0" vertex="1" parent="ar1jgbPBTupEKVwIJaHe-29">
          <mxGeometry x="1" relative="1" as="geometry" />
        </mxCell>
        <mxCell id="ar1jgbPBTupEKVwIJaHe-32" value="" style="endArrow=none;html=1;rounded=0;exitX=0.5;exitY=0;exitDx=0;exitDy=0;entryX=0.369;entryY=0.986;entryDx=0;entryDy=0;labelBackgroundColor=none;strokeColor=#788AA3;fontColor=default;entryPerimeter=0;" edge="1" parent="1" source="ar1jgbPBTupEKVwIJaHe-1" target="ar1jgbPBTupEKVwIJaHe-26">
          <mxGeometry relative="1" as="geometry">
            <mxPoint x="385" y="198.53" as="sourcePoint" />
            <mxPoint x="530" y="253.53" as="targetPoint" />
          </mxGeometry>
        </mxCell>
        <mxCell id="ar1jgbPBTupEKVwIJaHe-33" value="" style="resizable=0;html=1;whiteSpace=wrap;align=right;verticalAlign=bottom;labelBackgroundColor=none;fillColor=#B2C9AB;strokeColor=#788AA3;fontColor=#46495D;" connectable="0" vertex="1" parent="ar1jgbPBTupEKVwIJaHe-32">
          <mxGeometry x="1" relative="1" as="geometry" />
        </mxCell>
        <mxCell id="ar1jgbPBTupEKVwIJaHe-34" value="" style="endArrow=none;html=1;rounded=0;exitX=0.5;exitY=1;exitDx=0;exitDy=0;entryX=0.5;entryY=0;entryDx=0;entryDy=0;labelBackgroundColor=none;strokeColor=#788AA3;fontColor=default;" edge="1" parent="1" source="ar1jgbPBTupEKVwIJaHe-27" target="ar1jgbPBTupEKVwIJaHe-1">
          <mxGeometry relative="1" as="geometry">
            <mxPoint x="395" y="208.53" as="sourcePoint" />
            <mxPoint x="540" y="263.53" as="targetPoint" />
          </mxGeometry>
        </mxCell>
        <mxCell id="ar1jgbPBTupEKVwIJaHe-35" value="" style="resizable=0;html=1;whiteSpace=wrap;align=right;verticalAlign=bottom;labelBackgroundColor=none;fillColor=#B2C9AB;strokeColor=#788AA3;fontColor=#46495D;" connectable="0" vertex="1" parent="ar1jgbPBTupEKVwIJaHe-34">
          <mxGeometry x="1" relative="1" as="geometry" />
        </mxCell>
        <mxCell id="ar1jgbPBTupEKVwIJaHe-36" value="" style="endArrow=none;html=1;rounded=0;exitX=1;exitY=1;exitDx=0;exitDy=0;entryX=0.5;entryY=0;entryDx=0;entryDy=0;labelBackgroundColor=none;strokeColor=#788AA3;fontColor=default;" edge="1" parent="1" source="ar1jgbPBTupEKVwIJaHe-28" target="ar1jgbPBTupEKVwIJaHe-1">
          <mxGeometry relative="1" as="geometry">
            <mxPoint x="405" y="218.53" as="sourcePoint" />
            <mxPoint x="550" y="273.53" as="targetPoint" />
          </mxGeometry>
        </mxCell>
        <mxCell id="ar1jgbPBTupEKVwIJaHe-37" value="" style="resizable=0;html=1;whiteSpace=wrap;align=right;verticalAlign=bottom;labelBackgroundColor=none;fillColor=#B2C9AB;strokeColor=#788AA3;fontColor=#46495D;" connectable="0" vertex="1" parent="ar1jgbPBTupEKVwIJaHe-36">
          <mxGeometry x="1" relative="1" as="geometry" />
        </mxCell>
        <mxCell id="ar1jgbPBTupEKVwIJaHe-38" value="" style="endArrow=none;html=1;rounded=0;exitX=1;exitY=0.5;exitDx=0;exitDy=0;entryX=0.25;entryY=0;entryDx=0;entryDy=0;labelBackgroundColor=none;strokeColor=#788AA3;fontColor=default;" edge="1" parent="1" source="ar1jgbPBTupEKVwIJaHe-24" target="ar1jgbPBTupEKVwIJaHe-1">
          <mxGeometry relative="1" as="geometry">
            <mxPoint x="305" y="188.53" as="sourcePoint" />
            <mxPoint x="450" y="243.52999999999997" as="targetPoint" />
          </mxGeometry>
        </mxCell>
        <mxCell id="ar1jgbPBTupEKVwIJaHe-39" value="" style="resizable=0;html=1;whiteSpace=wrap;align=right;verticalAlign=bottom;labelBackgroundColor=none;fillColor=#B2C9AB;strokeColor=#788AA3;fontColor=#46495D;" connectable="0" vertex="1" parent="ar1jgbPBTupEKVwIJaHe-38">
          <mxGeometry x="1" relative="1" as="geometry" />
        </mxCell>
        <mxCell id="ar1jgbPBTupEKVwIJaHe-40" value="" style="endArrow=none;html=1;rounded=0;exitX=1;exitY=0.5;exitDx=0;exitDy=0;entryX=0;entryY=0.5;entryDx=0;entryDy=0;labelBackgroundColor=none;strokeColor=#788AA3;fontColor=default;" edge="1" parent="1" source="ar1jgbPBTupEKVwIJaHe-22" target="ar1jgbPBTupEKVwIJaHe-1">
          <mxGeometry relative="1" as="geometry">
            <mxPoint x="425" y="238.53" as="sourcePoint" />
            <mxPoint x="570" y="293.53" as="targetPoint" />
          </mxGeometry>
        </mxCell>
        <mxCell id="ar1jgbPBTupEKVwIJaHe-41" value="" style="resizable=0;html=1;whiteSpace=wrap;align=right;verticalAlign=bottom;labelBackgroundColor=none;fillColor=#B2C9AB;strokeColor=#788AA3;fontColor=#46495D;" connectable="0" vertex="1" parent="ar1jgbPBTupEKVwIJaHe-40">
          <mxGeometry x="1" relative="1" as="geometry" />
        </mxCell>
      </root>
    </mxGraphModel>
  </diagram>
</mxfile>
